<svg xmlns="http://www.w3.org/2000/svg" viewBox="0 0 24 24" role="img">
  <path fill="#34E0A1" d="M12 4.4c3.5 0 6.28.88 8.1 2.18l2.1.04-1.35 1.52A5.8 5.8 0 0 1 22 11.6a5.45 5.45 0 0 1-9.95 3.07L12 14.6l-.05.07A5.45 5.45 0 0 1 2 11.6c0-1.3.42-2.5 1.15-3.46L1.8 6.62l2.1-.04C5.72 5.28 8.5 4.4 12 4.4Z"/>
  <circle cx="7.35" cy="11.55" r="3.15" fill="#fff"/>
  <circle cx="16.65" cy="11.55" r="3.15" fill="#fff"/>
  <circle cx="7.35" cy="11.55" r="1.65" fill="#111"/>
  <circle cx="16.65" cy="11.55" r="1.65" fill="#111"/>
  <path fill="#E95D4F" d="m12 16.2 1.55 2.05H10.45L12 16.2Z"/>
</svg>
